<svg width="32" height="32" viewBox="0 0 32 32" fill="none" xmlns="http://www.w3.org/2000/svg">
<g id="Icon/favourite">
<path id="Shape" d="M14.7331 25.5277L14.7316 25.5264C11.2779 22.4543 8.49325 19.9751 6.56002 17.6566C4.63766 15.3511 3.66699 13.3306 3.66699 11.1935C3.66699 7.73548 6.4277 5 10.0003 5C12.0247 5 13.9779 5.92922 15.2452 7.38907L16.0003 8.25893L16.7555 7.38907C18.0228 5.92922 19.976 5 22.0003 5C25.573 5 28.3337 7.73548 28.3337 11.1935C28.3337 13.3306 27.363 15.3512 25.4404 17.6585C23.5072 19.9786 20.7229 22.4607 17.2694 25.5391C17.269 25.5395 17.2686 25.5398 17.2682 25.5402L16.0029 26.6616L14.7331 25.5277Z" stroke="white" stroke-width="2"/>
</g>
</svg>
