<svg width="36" height="36" viewBox="0 0 36 36" fill="none" xmlns="http://www.w3.org/2000/svg">
<g clip-path="url(#clip0_2445_30614)">
<path d="M32.3039 26.8427H29.4794C29.2865 26.8427 29.1057 26.9271 28.9852 27.0757C28.7039 27.4173 28.4026 27.7467 28.0852 28.0601C26.787 29.3596 25.2492 30.3952 23.557 31.1097C21.8039 31.8502 19.9195 32.23 18.0164 32.2266C16.0919 32.2266 14.2276 31.8489 12.4758 31.1097C10.7836 30.3952 9.24585 29.3596 7.94766 28.0601C6.64714 26.765 5.61014 25.23 4.89409 23.54C4.15078 21.7882 3.77712 19.928 3.77712 18.0034C3.77712 16.0789 4.1548 14.2186 4.89409 12.4668C5.60926 10.7753 6.63784 9.25252 7.94766 7.94671C9.25748 6.64091 10.7802 5.61234 12.4758 4.89716C14.2276 4.15787 16.0919 3.78019 18.0164 3.78019C19.941 3.78019 21.8052 4.15386 23.557 4.89716C25.2526 5.61234 26.7753 6.64091 28.0852 7.94671C28.4026 8.26412 28.6999 8.59359 28.9852 8.93109C29.1057 9.07975 29.2905 9.16412 29.4794 9.16412H32.3039C32.557 9.16412 32.7137 8.88287 32.5731 8.66993C29.4914 3.88064 24.0994 0.710552 17.9722 0.726623C8.34542 0.75073 0.627121 8.56546 0.72355 18.1802C0.819979 27.6423 8.52623 35.2802 18.0164 35.2802C24.1276 35.2802 29.4954 32.1141 32.5731 27.3369C32.7097 27.1239 32.557 26.8427 32.3039 26.8427ZM35.8758 17.7503L30.1744 13.2503C29.9615 13.0815 29.6521 13.2342 29.6521 13.5034V16.557H17.0361C16.8593 16.557 16.7146 16.7016 16.7146 16.8784V19.1284C16.7146 19.3052 16.8593 19.4498 17.0361 19.4498H29.6521V22.5034C29.6521 22.7726 29.9655 22.9253 30.1744 22.7565L35.8758 18.2565C35.9142 18.2265 35.9453 18.1881 35.9666 18.1442C35.988 18.1003 35.9991 18.0522 35.9991 18.0034C35.9991 17.9546 35.988 17.9065 35.9666 17.8626C35.9453 17.8188 35.9142 17.7804 35.8758 17.7503V17.7503Z" fill="white"/>
</g>
<defs>
<clipPath id="clip0_2445_30614">
<rect width="36" height="36" fill="white"/>
</clipPath>
</defs>
</svg>
