<svg width="70" height="76" viewBox="0 0 70 76" fill="none" xmlns="http://www.w3.org/2000/svg">
<path d="M24.3694 58.03H0L23.2843 17.7012L28.6846 27.0564C21.559 29.1377 16.3537 35.7207 16.3537 43.516C16.3537 49.6285 19.554 54.995 24.3694 58.03Z" fill="#2BD9A8"/>
<path d="M50.6463 43.5165C50.6463 39.799 30.7913 4.68822 30.7913 4.68822L33.4957 0L66.9999 58.0262H42.6263C47.4416 54.9912 50.642 49.6247 50.642 43.5123L50.6463 43.5165Z" fill="#2BD9A8"/>
<path d="M37.7474 43.5039C37.7474 45.8438 35.8441 47.747 33.5042 47.747C31.1644 47.747 29.2611 45.8438 29.2611 43.5039C29.2611 41.164 31.1644 39.2607 33.5042 39.2607C35.8441 39.2607 37.7474 41.164 37.7474 43.5039Z" fill="#2BD9A8"/>
<path d="M36.1027 22.4537C33.4958 18.0367 30.9737 13.6707 28.5363 9.35547C27.6207 10.8391 26.7009 12.3269 25.781 13.8148C29.0747 19.4822 32.3598 25.1538 35.6492 30.8212C35.5644 30.8043 35.4796 30.7916 35.3949 30.7789C34.776 30.6856 34.1401 30.639 33.4958 30.639C32.5845 30.639 31.6985 30.7322 30.8423 30.9103C24.946 32.1353 20.5121 37.3619 20.5121 43.6227C20.5121 50.7907 26.3236 56.6064 33.4958 56.6064C42.3339 56.6064 46.4711 47.5776 46.4796 43.6227C46.488 41.1981 38.7266 26.9003 36.0985 22.4494L36.1027 22.4537ZM33.5001 51.6385C29.0068 51.6385 25.3656 47.993 25.3656 43.504C25.3656 39.015 29.0068 35.3696 33.5001 35.3696C37.9933 35.3696 41.6345 39.0108 41.6345 43.504C41.6345 47.9972 37.9933 51.6385 33.5001 51.6385Z" fill="#2BD9A8"/>
<path d="M0.596591 66.2758V64.6192H9.30043V66.2758H5.92862V75.5283H3.96839V66.2758H0.596591ZM11.9718 70.7343V75.5283H10.0435V67.3465H11.8865V68.7368H11.9824C12.1706 68.2787 12.4707 67.9147 12.8826 67.6448C13.2981 67.3749 13.8113 67.24 14.4221 67.24C14.9867 67.24 15.4785 67.3607 15.8975 67.6022C16.3201 67.8437 16.6468 68.1934 16.8777 68.6515C17.112 69.1096 17.2275 69.6654 17.2239 70.3188V75.5283H15.2956V70.6171C15.2956 70.0702 15.1536 69.6423 14.8695 69.3334C14.589 69.0244 14.2001 68.8699 13.7029 68.8699C13.3656 68.8699 13.0655 68.9445 12.8027 69.0937C12.5435 69.2393 12.3393 69.4506 12.1902 69.7275C12.0446 70.0045 11.9718 70.3401 11.9718 70.7343ZM28.2342 64.6192V75.5283H26.4764L21.3361 68.0976H21.2456V75.5283H19.2694V64.6192H21.0378L26.1728 72.0553H26.2686V64.6192H28.2342ZM33.3385 75.6721C32.6958 75.6721 32.1205 75.507 31.6127 75.1768C31.1048 74.8465 30.7036 74.3671 30.4088 73.7385C30.1141 73.11 29.9667 72.3465 29.9667 71.4481C29.9667 70.539 30.1159 69.7719 30.4142 69.1469C30.716 68.5184 31.1226 68.0443 31.634 67.7247C32.1453 67.4015 32.7153 67.24 33.3438 67.24C33.8232 67.24 34.2174 67.3216 34.5264 67.485C34.8353 67.6448 35.0803 67.8383 35.2615 68.0656C35.4426 68.2893 35.5828 68.5006 35.6823 68.6995H35.7622V64.6192H37.6958V75.5283H35.7994V74.2393H35.6823C35.5828 74.4381 35.439 74.6494 35.2508 74.8731C35.0626 75.0933 34.814 75.2815 34.5051 75.4378C34.1961 75.594 33.8073 75.6721 33.3385 75.6721ZM33.8765 74.0901C34.2849 74.0901 34.6329 73.98 34.9205 73.7599C35.2082 73.5361 35.4266 73.2254 35.5757 72.8277C35.7249 72.43 35.7994 71.9665 35.7994 71.4374C35.7994 70.9083 35.7249 70.4484 35.5757 70.0578C35.4301 69.6672 35.2135 69.3635 34.9259 69.1469C34.6418 68.9303 34.292 68.822 33.8765 68.822C33.4468 68.822 33.0882 68.9339 32.8005 69.1576C32.5129 69.3813 32.2963 69.6903 32.1507 70.0844C32.0051 70.4786 31.9323 70.9296 31.9323 71.4374C31.9323 71.9488 32.0051 72.4051 32.1507 72.8064C32.2998 73.2041 32.5182 73.5184 32.8058 73.7492C33.097 73.9765 33.4539 74.0901 33.8765 74.0901ZM46.2172 69.5091L44.4593 69.7009C44.4096 69.5233 44.3226 69.3564 44.1983 69.2002C44.0776 69.0439 43.9142 68.9179 43.7083 68.822C43.5023 68.7261 43.2502 68.6782 42.9519 68.6782C42.5506 68.6782 42.2132 68.7652 41.9398 68.9392C41.6699 69.1132 41.5368 69.3387 41.5403 69.6157C41.5368 69.8536 41.6238 70.0471 41.8013 70.1963C41.9824 70.3454 42.2807 70.468 42.6962 70.5638L44.0918 70.8621C44.8659 71.029 45.4412 71.2936 45.8176 71.6558C46.1976 72.018 46.3894 72.4921 46.3929 73.078C46.3894 73.593 46.2385 74.0475 45.9402 74.4417C45.6454 74.8323 45.2353 75.1377 44.7097 75.3579C44.1841 75.578 43.5804 75.6881 42.8986 75.6881C41.8972 75.6881 41.0911 75.4786 40.4803 75.0596C39.8695 74.637 39.5055 74.0493 39.3883 73.2964L41.2686 73.1153C41.3539 73.4846 41.535 73.7634 41.812 73.9516C42.089 74.1398 42.4494 74.2339 42.8933 74.2339C43.3514 74.2339 43.7189 74.1398 43.9959 73.9516C44.2765 73.7634 44.4167 73.5308 44.4167 73.2538C44.4167 73.0194 44.3262 72.8259 44.1451 72.6732C43.9675 72.5205 43.6905 72.4033 43.3141 72.3216L41.9185 72.0287C41.1337 71.8653 40.5531 71.5901 40.1767 71.203C39.8002 70.8124 39.6138 70.3188 39.6174 69.7222C39.6138 69.218 39.7505 68.7812 40.0275 68.4118C40.3081 68.039 40.6969 67.7513 41.1941 67.5489C41.6948 67.343 42.2718 67.24 42.9252 67.24C43.8841 67.24 44.6387 67.4442 45.1891 67.8525C45.7431 68.2609 46.0858 68.8131 46.2172 69.5091ZM49.9112 70.7343V75.5283H47.983V64.6192H49.8686V68.7368H49.9645C50.1563 68.2751 50.4528 67.9111 50.854 67.6448C51.2589 67.3749 51.7738 67.24 52.3988 67.24C52.967 67.24 53.4624 67.3589 53.8849 67.5969C54.3075 67.8348 54.6342 68.1828 54.8651 68.6409C55.0994 69.099 55.2166 69.6583 55.2166 70.3188V75.5283H53.2884V70.6171C53.2884 70.0667 53.1463 69.6388 52.8622 69.3334C52.5817 69.0244 52.1875 68.8699 51.6797 68.8699C51.3388 68.8699 51.0334 68.9445 50.7635 69.0937C50.4972 69.2393 50.2876 69.4506 50.1349 69.7275C49.9858 70.0045 49.9112 70.3401 49.9112 70.7343ZM66.2322 64.6192V75.5283H64.4744L59.3342 68.0976H59.2436V75.5283H57.2674V64.6192H59.0359L64.1708 72.0553H64.2667V64.6192H66.2322Z" fill="white"/>
</svg>
