<svg width="32" height="32" viewBox="0 0 32 32" fill="none" xmlns="http://www.w3.org/2000/svg">
<g id="Group">
<g id="Group_2">
<path id="Path" d="M11.333 23.7082V10.6189C11.333 10.0655 11.6743 9.56953 12.1917 9.37353L23.525 5.0562C24.3983 4.72286 25.333 5.3682 25.333 6.30153V21.0335" stroke="white" stroke-width="1.5" stroke-linecap="round" stroke-linejoin="round"/>
<path id="Path_2" d="M24.3573 18.6765C25.6591 19.9783 25.6591 22.0888 24.3573 23.3905C23.0556 24.6923 20.945 24.6923 19.6433 23.3905C18.3416 22.0888 18.3416 19.9783 19.6433 18.6765C20.9451 17.3748 23.0556 17.3748 24.3573 18.6765" stroke="white" stroke-width="1.5" stroke-linecap="round" stroke-linejoin="round"/>
<path id="Path_3" d="M10.3573 21.343C11.6591 22.6448 11.6591 24.7553 10.3573 26.0571C9.0556 27.3588 6.94505 27.3588 5.6433 26.0571C4.34156 24.7553 4.34156 22.6448 5.6433 21.343C6.94505 20.0413 9.0556 20.0413 10.3573 21.343" stroke="white" stroke-width="1.5" stroke-linecap="round" stroke-linejoin="round"/>
</g>
</g>
</svg>
